<svg xmlns="http://www.w3.org/2000/svg" width="1192" height="411" viewBox="0 0 1192 411" fill="none">
<g clip-path="url(#clip0_76_726)">
<rect width="1192" height="411" rx="12" fill="url(#paint0_linear_76_726)"/>
<g opacity="0.2">
<path d="M1225 42H-19.9999" stroke="white" stroke-width="0.6"/>
<path d="M1225 107.4H-19.9999" stroke="white" stroke-width="0.6"/>
<path d="M1225 172.8H-19.9999" stroke="white" stroke-width="0.6"/>
<path d="M1225 238.2H-19.9999" stroke="white" stroke-width="0.6"/>
<path d="M1225 303.6H-19.9999" stroke="white" stroke-width="0.6"/>
<path d="M1225 369H-19.9999" stroke="white" stroke-width="0.6"/>
<path d="M1156.8 828L1156.8 -417" stroke="white" stroke-width="0.6"/>
<path d="M1091.4 828L1091.4 -417" stroke="white" stroke-width="0.6"/>
<path d="M1026 828L1026 -417" stroke="white" stroke-width="0.6"/>
<path d="M960.6 828L960.6 -417" stroke="white" stroke-width="0.6"/>
<path d="M895.2 828L895.2 -417" stroke="white" stroke-width="0.6"/>
<path d="M829.8 828L829.8 -417" stroke="white" stroke-width="0.6"/>
<path d="M764.4 828L764.4 -417" stroke="white" stroke-width="0.6"/>
<path d="M699 828L699 -417" stroke="white" stroke-width="0.6"/>
<path d="M633.6 828L633.6 -417" stroke="white" stroke-width="0.6"/>
<path d="M568.2 828L568.2 -417" stroke="white" stroke-width="0.6"/>
<path d="M502.8 828L502.8 -417" stroke="white" stroke-width="0.6"/>
<path d="M437.4 828L437.4 -417" stroke="white" stroke-width="0.6"/>
<path d="M372 828L372 -417" stroke="white" stroke-width="0.6"/>
<path d="M306.6 828L306.6 -417" stroke="white" stroke-width="0.6"/>
<path d="M241.2 828L241.2 -417" stroke="white" stroke-width="0.6"/>
<path d="M175.8 828L175.8 -417" stroke="white" stroke-width="0.6"/>
<path d="M110.4 828L110.4 -417" stroke="white" stroke-width="0.6"/>
<path d="M44.9997 828L44.9998 -417" stroke="white" stroke-width="0.6"/>
</g>
<g opacity="0.5" filter="url(#filter0_f_76_726)">
<path d="M1151.57 -169.762C1160.28 -179.13 1174.94 -179.664 1184.3 -170.956C1193.1 -162.774 1194.19 -149.221 1186.79 -139.747L925.799 194.711C911.354 213.221 884.439 216.062 866.448 200.975C848.258 185.721 846.558 158.341 862.722 140.954L1151.57 -169.762Z" fill="url(#paint1_linear_76_726)"/>
</g>
<g opacity="0.5" filter="url(#filter1_f_76_726)">
<path d="M1246.18 -183.798C1252.25 -194.983 1266.24 -199.129 1277.43 -193.058C1288.02 -187.311 1292.39 -174.376 1287.46 -163.381L1100.31 254.17C1090.63 275.754 1064.57 284.454 1043.87 273.012C1024.44 262.272 1017.31 237.871 1027.9 218.359L1246.18 -183.798Z" fill="url(#paint2_linear_76_726)"/>
</g>
<g opacity="0.5" filter="url(#filter2_f_76_726)">
<path d="M-123.059 -20.4811C-132.129 -29.4984 -132.173 -44.1615 -123.155 -53.2321C-114.683 -61.7539 -101.101 -62.3805 -91.8807 -54.6748L233.646 217.377C251.662 232.433 253.6 259.429 237.919 276.904C222.064 294.573 194.642 295.354 177.807 278.618L-123.059 -20.4811Z" fill="url(#paint3_linear_76_726)"/>
</g>
<g opacity="0.5" filter="url(#filter3_f_76_726)">
<path d="M-133.918 -115.507C-144.893 -121.949 -148.568 -136.069 -142.126 -147.044C-136.027 -157.435 -122.952 -161.373 -112.129 -156.079L298.918 44.9577C320.166 55.3495 327.988 81.6853 315.859 101.991C304.474 121.05 279.848 127.359 260.702 116.121L-133.918 -115.507Z" fill="url(#paint4_linear_76_726)"/>
</g>
<rect opacity="0.05" x="327.64" y="172.64" width="522.72" height="159.72" rx="79.86" stroke="white" stroke-width="2.64"/>
<rect opacity="0.04" x="317.08" y="162.08" width="543.84" height="180.84" rx="90.42" stroke="white" stroke-width="2.64"/>
<rect opacity="0.03" x="306.52" y="151.52" width="564.96" height="201.96" rx="100.98" stroke="white" stroke-width="2.64"/>
<rect x="336.88" y="181.88" width="504.24" height="141.24" rx="70.62" fill="#F8F8FB" fill-opacity="0.35"/>
<rect x="338.2" y="183.2" width="501.6" height="138.6" rx="69.3" stroke="white" stroke-opacity="0.6" stroke-width="2.64"/>
<g opacity="0.8">
<path fill-rule="evenodd" clip-rule="evenodd" d="M550.011 242.616L555.984 248.59L537.587 266.987L555.192 284.592L549.219 290.566L525.64 266.987L550.011 242.616Z" fill="url(#paint5_linear_76_726)"/>
<path d="M535.838 262.235H629.162V270.683H535.838V262.235Z" fill="url(#paint6_linear_76_726)"/>
</g>
<g opacity="0.8">
<path fill-rule="evenodd" clip-rule="evenodd" d="M643.071 261.51L637.098 255.536L655.495 237.139L637.89 219.534L643.863 213.56L667.442 237.139L643.071 261.51Z" fill="url(#paint7_linear_76_726)"/>
<path d="M657.245 241.891L563.92 241.891L563.92 233.443L657.245 233.443L657.245 241.891Z" fill="url(#paint8_linear_76_726)"/>
</g>
<g clip-path="url(#clip1_76_726)">
<path d="M411.856 192.44C451.28 192.44 470.992 212.152 470.992 251.576C470.992 291 451.28 310.712 411.856 310.712C372.432 310.712 352.72 291 352.72 251.576C352.72 212.152 372.432 192.44 411.856 192.44Z" fill="black"/>
<path d="M389.7 265.421C389.896 265.218 390.131 265.058 390.391 264.948C390.65 264.839 390.929 264.783 391.211 264.783H443.645C444.578 264.783 445.071 265.966 444.401 266.656L434.058 277.221C433.862 277.424 433.627 277.584 433.367 277.694C433.108 277.803 432.829 277.859 432.547 277.859H380.061C379.128 277.859 378.635 276.676 379.305 275.993L389.687 265.421H389.7Z" fill="#C931F7"/>
<path d="M389.7 225.931C389.896 225.728 390.131 225.568 390.391 225.458C390.65 225.349 390.929 225.293 391.211 225.293H443.645C444.578 225.293 445.071 226.476 444.401 227.159L434.058 237.731C433.862 237.934 433.627 238.094 433.367 238.204C433.108 238.313 432.829 238.369 432.547 238.369H380.061C379.128 238.369 378.635 237.186 379.305 236.496L389.687 225.931H389.7Z" fill="#1CE2AF"/>
<path d="M434.012 245.564C433.816 245.362 433.581 245.201 433.322 245.092C433.062 244.982 432.783 244.926 432.501 244.927H380.067C379.134 244.927 378.641 246.109 379.312 246.793L389.654 257.358C389.85 257.56 390.085 257.721 390.345 257.83C390.604 257.94 390.883 257.996 391.165 257.996H443.599C444.532 257.996 445.025 256.813 444.355 256.13L434.012 245.564Z" fill="#6697CE"/>
</g>
<circle cx="769.18" cy="251.576" r="59.136" fill="white"/>
<circle cx="769.18" cy="251.576" r="58.476" stroke="black" stroke-opacity="0.05" stroke-width="1.32"/>
<path d="M761.549 250.728L754.801 238.292L768.956 214.88L796.754 263.547L803.796 276.213H775.924L768.956 263.547L761.549 276.213H732.88L747.54 250.728H761.549Z" fill="black"/>
<path d="M748.213 249.379L732.88 276.212H761.63L776.963 249.379H748.213Z" fill="#3940FC"/>
<g opacity="0.3" filter="url(#filter4_f_76_726)">
<path d="M594.898 199L907 -131H285L594.898 199Z" fill="white"/>
</g>
<g opacity="0.5">
<rect x="895" y="199" width="382" height="107" rx="53.5" fill="#F8F8FB" fill-opacity="0.35"/>
<rect x="896" y="200" width="380" height="105" rx="52.5" stroke="white" stroke-opacity="0.6" stroke-width="2"/>
<g opacity="0.8">
<path fill-rule="evenodd" clip-rule="evenodd" d="M1056.46 245.012L1060.99 249.538L1047.05 263.475L1060.39 276.812L1055.86 281.338L1038 263.475L1056.46 245.012Z" fill="url(#paint9_linear_76_726)"/>
<path d="M1045.73 259.875H1116.43V266.275H1045.73V259.875Z" fill="url(#paint10_linear_76_726)"/>
</g>
<g opacity="0.8">
<path fill-rule="evenodd" clip-rule="evenodd" d="M1126.96 259.325L1122.44 254.8L1136.37 240.863L1123.04 227.525L1127.56 223L1145.43 240.863L1126.96 259.325Z" fill="url(#paint11_linear_76_726)"/>
<path d="M1137.7 244.463L1067 244.463L1067 238.063L1137.7 238.063L1137.7 244.463Z" fill="url(#paint12_linear_76_726)"/>
</g>
<g clip-path="url(#clip2_76_726)">
<path d="M951.8 207C981.667 207 996.6 221.933 996.6 251.8C996.6 281.667 981.667 296.6 951.8 296.6C921.933 296.6 907 281.667 907 251.8C907 221.933 921.933 207 951.8 207Z" fill="white"/>
</g>
<circle cx="1222.5" cy="251.8" r="44.8" fill="white"/>
<circle cx="1222.5" cy="251.8" r="44.3" stroke="black" stroke-opacity="0.05"/>
</g>
<g opacity="0.5">
<rect x="-122" y="199" width="382" height="107" rx="53.5" fill="#F8F8FB" fill-opacity="0.35"/>
<rect x="-121" y="200" width="380" height="105" rx="52.5" stroke="white" stroke-opacity="0.6" stroke-width="2"/>
<g opacity="0.8">
<path fill-rule="evenodd" clip-rule="evenodd" d="M39.4627 245.012L43.9882 249.538L30.051 263.475L43.3882 276.812L38.8627 281.338L21 263.475L39.4627 245.012Z" fill="url(#paint13_linear_76_726)"/>
<path d="M28.7255 259.875H99.4258V266.275H28.7255V259.875Z" fill="url(#paint14_linear_76_726)"/>
</g>
<g opacity="0.8">
<path fill-rule="evenodd" clip-rule="evenodd" d="M109.963 259.325L105.438 254.8L119.375 240.863L106.038 227.525L110.563 223L128.426 240.863L109.963 259.325Z" fill="url(#paint15_linear_76_726)"/>
<path d="M120.7 244.463L50 244.463L50 238.063L120.7 238.063L120.7 244.463Z" fill="url(#paint16_linear_76_726)"/>
</g>
<circle cx="205.5" cy="251.8" r="44.8" fill="white"/>
<circle cx="205.5" cy="251.8" r="44.3" stroke="black" stroke-opacity="0.05"/>
</g>
<path d="M424.269 107H416.673L427.077 82.88H436.761L447.201 107H439.425L433.701 93.068L432.117 89H431.649L430.101 93.068L424.269 107ZM440.613 102.536H422.829V96.452H440.613V102.536ZM463.082 107H454.73L446.666 88.856H454.226L458.762 100.412H459.23L463.802 88.856H471.218L463.082 107ZM491.517 107H485.181V102.968H484.821V96.524C484.821 95.612 484.581 95.036 484.101 94.796C483.645 94.532 482.817 94.4 481.617 94.4C480.513 94.4 479.745 94.532 479.313 94.796C478.905 95.06 478.701 95.576 478.701 96.344V96.488H471.933V96.416C471.933 94.808 472.353 93.416 473.193 92.24C474.033 91.04 475.221 90.116 476.757 89.468C478.293 88.82 480.081 88.496 482.121 88.496C484.233 88.496 485.985 88.832 487.377 89.504C488.769 90.152 489.801 91.088 490.473 92.312C491.169 93.512 491.517 94.964 491.517 96.668V107ZM477.981 107.36C475.941 107.36 474.357 106.916 473.229 106.028C472.125 105.14 471.573 103.928 471.573 102.392C471.573 101.528 471.777 100.76 472.185 100.088C472.593 99.416 473.229 98.876 474.093 98.468C474.957 98.036 476.073 97.748 477.441 97.604L485.181 96.848V100.592L479.241 101.276C478.929 101.3 478.701 101.372 478.557 101.492C478.437 101.612 478.377 101.768 478.377 101.96C478.377 102.248 478.509 102.44 478.773 102.536C479.061 102.608 479.469 102.644 479.997 102.644C481.197 102.644 482.145 102.584 482.841 102.464C483.537 102.32 484.041 102.068 484.353 101.708C484.665 101.348 484.821 100.832 484.821 100.16L485.325 100.016V103.184H484.821C484.485 104.456 483.753 105.476 482.625 106.244C481.497 106.988 479.949 107.36 477.981 107.36ZM500.291 107H493.523V88.856H500.291V107ZM500.291 87.2H493.523V82.88H500.291V87.2ZM509.221 107H502.453V82.88H509.221V107ZM530.787 107H524.451V102.968H524.091V96.524C524.091 95.612 523.851 95.036 523.371 94.796C522.915 94.532 522.087 94.4 520.887 94.4C519.783 94.4 519.015 94.532 518.583 94.796C518.175 95.06 517.971 95.576 517.971 96.344V96.488H511.203V96.416C511.203 94.808 511.623 93.416 512.463 92.24C513.303 91.04 514.491 90.116 516.027 89.468C517.563 88.82 519.351 88.496 521.391 88.496C523.503 88.496 525.255 88.832 526.647 89.504C528.039 90.152 529.071 91.088 529.743 92.312C530.439 93.512 530.787 94.964 530.787 96.668V107ZM517.251 107.36C515.211 107.36 513.627 106.916 512.499 106.028C511.395 105.14 510.843 103.928 510.843 102.392C510.843 101.528 511.047 100.76 511.455 100.088C511.863 99.416 512.499 98.876 513.363 98.468C514.227 98.036 515.343 97.748 516.711 97.604L524.451 96.848V100.592L518.511 101.276C518.199 101.3 517.971 101.372 517.827 101.492C517.707 101.612 517.647 101.768 517.647 101.96C517.647 102.248 517.779 102.44 518.043 102.536C518.331 102.608 518.739 102.644 519.267 102.644C520.467 102.644 521.415 102.584 522.111 102.464C522.807 102.32 523.311 102.068 523.623 101.708C523.935 101.348 524.091 100.832 524.091 100.16L524.595 100.016V103.184H524.091C523.755 104.456 523.023 105.476 521.895 106.244C520.767 106.988 519.219 107.36 517.251 107.36ZM546.473 107.36C544.361 107.36 542.741 106.94 541.613 106.1C540.485 105.236 539.777 103.904 539.489 102.104H538.373L538.877 97.964H539.561C539.561 98.828 539.717 99.5 540.029 99.98C540.365 100.436 540.857 100.748 541.505 100.916C542.177 101.084 543.017 101.168 544.025 101.168C545.081 101.168 545.909 101.072 546.509 100.88C547.133 100.664 547.577 100.316 547.841 99.836C548.105 99.356 548.237 98.72 548.237 97.928C548.237 97.112 548.105 96.476 547.841 96.02C547.577 95.54 547.133 95.192 546.509 94.976C545.909 94.76 545.081 94.652 544.025 94.652C542.513 94.652 541.385 94.844 540.641 95.228C539.921 95.612 539.561 96.44 539.561 97.712H538.877V93.536H539.921C540.185 92.024 540.857 90.812 541.937 89.9C543.017 88.964 544.625 88.496 546.761 88.496C548.537 88.496 550.037 88.88 551.261 89.648C552.509 90.392 553.457 91.472 554.105 92.888C554.753 94.28 555.077 95.96 555.077 97.928C555.077 99.872 554.741 101.552 554.069 102.968C553.421 104.384 552.449 105.476 551.153 106.244C549.881 106.988 548.321 107.36 546.473 107.36ZM539.129 107H532.793V82.88H539.561V101.42L539.129 101.888V107ZM563.643 107H556.875V82.88H563.643V107ZM575.921 107.36C573.881 107.36 572.069 107.048 570.485 106.424C568.901 105.8 567.665 104.792 566.777 103.4C565.889 102.008 565.445 100.184 565.445 97.928C565.445 95.96 565.889 94.28 566.777 92.888C567.665 91.472 568.877 90.392 570.413 89.648C571.973 88.88 573.761 88.496 575.777 88.496C577.865 88.496 579.677 88.844 581.213 89.54C582.749 90.212 583.937 91.22 584.777 92.564C585.617 93.884 586.037 95.516 586.037 97.46C586.037 97.772 586.025 98.06 586.001 98.324C586.001 98.564 585.977 98.852 585.929 99.188H569.873V95.768H581.033L579.557 97.892C579.557 97.676 579.557 97.472 579.557 97.28C579.557 97.064 579.557 96.848 579.557 96.632C579.557 95.528 579.269 94.76 578.693 94.328C578.141 93.896 577.121 93.68 575.633 93.68C574.097 93.68 573.053 93.92 572.501 94.4C571.973 94.88 571.709 95.744 571.709 96.992V98.72C571.709 99.992 571.985 100.856 572.537 101.312C573.089 101.768 574.133 101.996 575.669 101.996C577.037 101.996 577.949 101.876 578.405 101.636C578.885 101.372 579.125 100.976 579.125 100.448V100.052H585.893V100.484C585.893 101.828 585.485 103.016 584.669 104.048C583.853 105.08 582.701 105.896 581.213 106.496C579.725 107.072 577.961 107.36 575.921 107.36ZM602.919 107.36C600.831 107.36 598.983 106.988 597.375 106.244C595.791 105.476 594.555 104.384 593.667 102.968C592.779 101.552 592.335 99.872 592.335 97.928C592.335 95.96 592.779 94.28 593.667 92.888C594.555 91.472 595.791 90.392 597.375 89.648C598.983 88.88 600.831 88.496 602.919 88.496C605.031 88.496 606.879 88.88 608.463 89.648C610.047 90.392 611.283 91.472 612.171 92.888C613.059 94.28 613.503 95.96 613.503 97.928C613.503 99.872 613.059 101.552 612.171 102.968C611.283 104.384 610.047 105.476 608.463 106.244C606.879 106.988 605.031 107.36 602.919 107.36ZM602.919 101.384C604.455 101.384 605.487 101.144 606.015 100.664C606.543 100.16 606.807 99.248 606.807 97.928C606.807 96.608 606.543 95.696 606.015 95.192C605.487 94.688 604.455 94.436 602.919 94.436C601.383 94.436 600.351 94.688 599.823 95.192C599.295 95.696 599.031 96.608 599.031 97.928C599.031 99.248 599.295 100.16 599.823 100.664C600.351 101.144 601.383 101.384 602.919 101.384ZM636.261 107H629.493V97.856C629.493 96.584 629.217 95.72 628.665 95.264C628.113 94.784 627.093 94.544 625.605 94.544C624.117 94.544 623.121 94.772 622.617 95.228C622.137 95.66 621.897 96.464 621.897 97.64H621.213L620.637 94.364H621.825C621.969 93.356 622.293 92.408 622.797 91.52C623.325 90.632 624.093 89.912 625.101 89.36C626.133 88.784 627.453 88.496 629.061 88.496C630.693 88.496 632.037 88.796 633.093 89.396C634.173 89.996 634.965 90.812 635.469 91.844C635.997 92.876 636.261 94.052 636.261 95.372V107ZM621.897 107H615.129V88.856H621.465V94.436L621.897 94.616V107ZM653.045 107.36C649.853 107.36 647.417 106.772 645.737 105.596C644.057 104.42 643.217 102.788 643.217 100.7V100.556H649.985V100.916C649.985 101.42 650.189 101.732 650.597 101.852C651.029 101.972 651.857 102.032 653.081 102.032C654.257 102.032 655.001 101.972 655.313 101.852C655.625 101.708 655.781 101.48 655.781 101.168C655.781 100.88 655.661 100.688 655.421 100.592C655.181 100.472 654.641 100.364 653.801 100.268L648.545 99.692C646.673 99.5 645.245 98.972 644.261 98.108C643.277 97.22 642.785 96.008 642.785 94.472C642.785 93.392 643.085 92.408 643.685 91.52C644.309 90.608 645.305 89.876 646.673 89.324C648.065 88.772 649.889 88.496 652.145 88.496C654.257 88.496 656.021 88.748 657.437 89.252C658.877 89.756 659.957 90.512 660.677 91.52C661.421 92.504 661.793 93.74 661.793 95.228V95.372H655.025V95.156C655.025 94.844 654.953 94.592 654.809 94.4C654.689 94.184 654.401 94.028 653.945 93.932C653.513 93.836 652.841 93.788 651.929 93.788C650.825 93.788 650.129 93.872 649.841 94.04C649.577 94.184 649.445 94.424 649.445 94.76C649.445 95 649.577 95.192 649.841 95.336C650.129 95.48 650.801 95.612 651.857 95.732L655.457 96.128C658.097 96.416 659.921 97.004 660.929 97.892C661.937 98.78 662.441 99.992 662.441 101.528C662.441 102.656 662.069 103.664 661.325 104.552C660.605 105.416 659.549 106.1 658.157 106.604C656.765 107.108 655.061 107.36 653.045 107.36ZM674.11 107.36C672.022 107.36 670.174 106.988 668.566 106.244C666.982 105.476 665.746 104.384 664.858 102.968C663.97 101.552 663.526 99.872 663.526 97.928C663.526 95.96 663.97 94.28 664.858 92.888C665.746 91.472 666.982 90.392 668.566 89.648C670.174 88.88 672.022 88.496 674.11 88.496C676.222 88.496 678.07 88.88 679.654 89.648C681.238 90.392 682.474 91.472 683.362 92.888C684.25 94.28 684.694 95.96 684.694 97.928C684.694 99.872 684.25 101.552 683.362 102.968C682.474 104.384 681.238 105.476 679.654 106.244C678.07 106.988 676.222 107.36 674.11 107.36ZM674.11 101.384C675.646 101.384 676.678 101.144 677.206 100.664C677.734 100.16 677.998 99.248 677.998 97.928C677.998 96.608 677.734 95.696 677.206 95.192C676.678 94.688 675.646 94.436 674.11 94.436C672.574 94.436 671.542 94.688 671.014 95.192C670.486 95.696 670.222 96.608 670.222 97.928C670.222 99.248 670.486 100.16 671.014 100.664C671.542 101.144 672.574 101.384 674.11 101.384ZM693.088 107H686.32V82.88H693.088V107ZM705.294 107.36C703.206 107.36 701.358 106.988 699.75 106.244C698.166 105.476 696.93 104.384 696.042 102.968C695.154 101.552 694.71 99.872 694.71 97.928C694.71 95.96 695.154 94.28 696.042 92.888C696.93 91.472 698.166 90.392 699.75 89.648C701.358 88.88 703.206 88.496 705.294 88.496C707.406 88.496 709.254 88.88 710.838 89.648C712.422 90.392 713.658 91.472 714.546 92.888C715.434 94.28 715.878 95.96 715.878 97.928C715.878 99.872 715.434 101.552 714.546 102.968C713.658 104.384 712.422 105.476 710.838 106.244C709.254 106.988 707.406 107.36 705.294 107.36ZM705.294 101.384C706.83 101.384 707.862 101.144 708.39 100.664C708.918 100.16 709.182 99.248 709.182 97.928C709.182 96.608 708.918 95.696 708.39 95.192C707.862 94.688 706.83 94.436 705.294 94.436C703.758 94.436 702.726 94.688 702.198 95.192C701.67 95.696 701.406 96.608 701.406 97.928C701.406 99.248 701.67 100.16 702.198 100.664C702.726 101.144 703.758 101.384 705.294 101.384ZM738.636 107H731.868V97.856C731.868 96.584 731.592 95.72 731.04 95.264C730.488 94.784 729.468 94.544 727.98 94.544C726.492 94.544 725.496 94.772 724.992 95.228C724.512 95.66 724.272 96.464 724.272 97.64H723.588L723.012 94.364H724.2C724.344 93.356 724.668 92.408 725.172 91.52C725.7 90.632 726.468 89.912 727.476 89.36C728.508 88.784 729.828 88.496 731.436 88.496C733.068 88.496 734.412 88.796 735.468 89.396C736.548 89.996 737.34 90.812 737.844 91.844C738.372 92.876 738.636 94.052 738.636 95.372V107ZM724.272 107H717.504V88.856H723.84V94.436L724.272 94.616V107ZM760.041 107H753.705V102.968H753.345V96.524C753.345 95.612 753.105 95.036 752.625 94.796C752.169 94.532 751.341 94.4 750.141 94.4C749.037 94.4 748.269 94.532 747.837 94.796C747.429 95.06 747.225 95.576 747.225 96.344V96.488H740.457V96.416C740.457 94.808 740.877 93.416 741.717 92.24C742.557 91.04 743.745 90.116 745.281 89.468C746.817 88.82 748.605 88.496 750.645 88.496C752.757 88.496 754.509 88.832 755.901 89.504C757.293 90.152 758.325 91.088 758.997 92.312C759.693 93.512 760.041 94.964 760.041 96.668V107ZM746.505 107.36C744.465 107.36 742.881 106.916 741.753 106.028C740.649 105.14 740.097 103.928 740.097 102.392C740.097 101.528 740.301 100.76 740.709 100.088C741.117 99.416 741.753 98.876 742.617 98.468C743.481 98.036 744.597 97.748 745.965 97.604L753.705 96.848V100.592L747.765 101.276C747.453 101.3 747.225 101.372 747.081 101.492C746.961 101.612 746.901 101.768 746.901 101.96C746.901 102.248 747.033 102.44 747.297 102.536C747.585 102.608 747.993 102.644 748.521 102.644C749.721 102.644 750.669 102.584 751.365 102.464C752.061 102.32 752.565 102.068 752.877 101.708C753.189 101.348 753.345 100.832 753.345 100.16L753.849 100.016V103.184H753.345C753.009 104.456 752.277 105.476 751.149 106.244C750.021 106.988 748.473 107.36 746.505 107.36Z" fill="white"/>
</g>
<defs>
<filter id="filter0_f_76_726" x="817.182" y="-211.593" width="408.952" height="456.706" filterUnits="userSpaceOnUse" color-interpolation-filters="sRGB">
<feFlood flood-opacity="0" result="BackgroundImageFix"/>
<feBlend mode="normal" in="SourceGraphic" in2="BackgroundImageFix" result="shape"/>
<feGaussianBlur stdDeviation="17.22" result="effect1_foregroundBlur_76_726"/>
</filter>
<filter id="filter1_f_76_726" x="988.562" y="-230.294" width="335.359" height="542.801" filterUnits="userSpaceOnUse" color-interpolation-filters="sRGB">
<feFlood flood-opacity="0" result="BackgroundImageFix"/>
<feBlend mode="normal" in="SourceGraphic" in2="BackgroundImageFix" result="shape"/>
<feGaussianBlur stdDeviation="17.22" result="effect1_foregroundBlur_76_726"/>
</filter>
<filter id="filter2_f_76_726" x="-164.33" y="-94.5035" width="447.296" height="419.623" filterUnits="userSpaceOnUse" color-interpolation-filters="sRGB">
<feFlood flood-opacity="0" result="BackgroundImageFix"/>
<feBlend mode="normal" in="SourceGraphic" in2="BackgroundImageFix" result="shape"/>
<feGaussianBlur stdDeviation="17.22" result="effect1_foregroundBlur_76_726"/>
</filter>
<filter id="filter3_f_76_726" x="-179.74" y="-192.866" width="535.767" height="348.994" filterUnits="userSpaceOnUse" color-interpolation-filters="sRGB">
<feFlood flood-opacity="0" result="BackgroundImageFix"/>
<feBlend mode="normal" in="SourceGraphic" in2="BackgroundImageFix" result="shape"/>
<feGaussianBlur stdDeviation="17.22" result="effect1_foregroundBlur_76_726"/>
</filter>
<filter id="filter4_f_76_726" x="165" y="-251" width="862" height="570" filterUnits="userSpaceOnUse" color-interpolation-filters="sRGB">
<feFlood flood-opacity="0" result="BackgroundImageFix"/>
<feBlend mode="normal" in="SourceGraphic" in2="BackgroundImageFix" result="shape"/>
<feGaussianBlur stdDeviation="60" result="effect1_foregroundBlur_76_726"/>
</filter>
<linearGradient id="paint0_linear_76_726" x1="596" y1="0" x2="596" y2="411" gradientUnits="userSpaceOnUse">
<stop stop-color="#CADFF6"/>
<stop offset="1" stop-color="#1A54CA"/>
</linearGradient>
<linearGradient id="paint1_linear_76_726" x1="1183.6" y1="-171.609" x2="849.259" y2="188.041" gradientUnits="userSpaceOnUse">
<stop stop-color="white"/>
<stop offset="1" stop-color="white" stop-opacity="0.3"/>
</linearGradient>
<linearGradient id="paint2_linear_76_726" x1="1276.69" y1="-193.46" x2="1028.28" y2="264.199" gradientUnits="userSpaceOnUse">
<stop stop-color="white"/>
<stop offset="1" stop-color="white" stop-opacity="0.3"/>
</linearGradient>
<linearGradient id="paint3_linear_76_726" x1="-123.831" y1="-52.5523" x2="224.416" y2="293.65" gradientUnits="userSpaceOnUse">
<stop stop-color="white"/>
<stop offset="1" stop-color="white" stop-opacity="0.3"/>
</linearGradient>
<linearGradient id="paint4_linear_76_726" x1="-142.552" y1="-146.317" x2="306.529" y2="117.278" gradientUnits="userSpaceOnUse">
<stop stop-color="white"/>
<stop offset="1" stop-color="white" stop-opacity="0.3"/>
</linearGradient>
<linearGradient id="paint5_linear_76_726" x1="629.162" y1="266.591" x2="544.022" y2="266.591" gradientUnits="userSpaceOnUse">
<stop stop-color="white" stop-opacity="0"/>
<stop offset="1" stop-color="white"/>
</linearGradient>
<linearGradient id="paint6_linear_76_726" x1="629.162" y1="266.591" x2="544.022" y2="266.591" gradientUnits="userSpaceOnUse">
<stop stop-color="white" stop-opacity="0"/>
<stop offset="1" stop-color="white"/>
</linearGradient>
<linearGradient id="paint7_linear_76_726" x1="563.92" y1="237.535" x2="649.06" y2="237.535" gradientUnits="userSpaceOnUse">
<stop stop-color="white" stop-opacity="0"/>
<stop offset="1" stop-color="white"/>
</linearGradient>
<linearGradient id="paint8_linear_76_726" x1="563.92" y1="237.535" x2="649.06" y2="237.535" gradientUnits="userSpaceOnUse">
<stop stop-color="white" stop-opacity="0"/>
<stop offset="1" stop-color="white"/>
</linearGradient>
<linearGradient id="paint9_linear_76_726" x1="1116.43" y1="263.175" x2="1051.93" y2="263.175" gradientUnits="userSpaceOnUse">
<stop stop-color="white" stop-opacity="0"/>
<stop offset="1" stop-color="white"/>
</linearGradient>
<linearGradient id="paint10_linear_76_726" x1="1116.43" y1="263.175" x2="1051.93" y2="263.175" gradientUnits="userSpaceOnUse">
<stop stop-color="white" stop-opacity="0"/>
<stop offset="1" stop-color="white"/>
</linearGradient>
<linearGradient id="paint11_linear_76_726" x1="1067" y1="241.163" x2="1131.5" y2="241.163" gradientUnits="userSpaceOnUse">
<stop stop-color="white" stop-opacity="0"/>
<stop offset="1" stop-color="white"/>
</linearGradient>
<linearGradient id="paint12_linear_76_726" x1="1067" y1="241.163" x2="1131.5" y2="241.163" gradientUnits="userSpaceOnUse">
<stop stop-color="white" stop-opacity="0"/>
<stop offset="1" stop-color="white"/>
</linearGradient>
<linearGradient id="paint13_linear_76_726" x1="99.4258" y1="263.175" x2="34.9255" y2="263.175" gradientUnits="userSpaceOnUse">
<stop stop-color="white" stop-opacity="0"/>
<stop offset="1" stop-color="white"/>
</linearGradient>
<linearGradient id="paint14_linear_76_726" x1="99.4258" y1="263.175" x2="34.9255" y2="263.175" gradientUnits="userSpaceOnUse">
<stop stop-color="white" stop-opacity="0"/>
<stop offset="1" stop-color="white"/>
</linearGradient>
<linearGradient id="paint15_linear_76_726" x1="50" y1="241.163" x2="114.5" y2="241.163" gradientUnits="userSpaceOnUse">
<stop stop-color="white" stop-opacity="0"/>
<stop offset="1" stop-color="white"/>
</linearGradient>
<linearGradient id="paint16_linear_76_726" x1="50" y1="241.163" x2="114.5" y2="241.163" gradientUnits="userSpaceOnUse">
<stop stop-color="white" stop-opacity="0"/>
<stop offset="1" stop-color="white"/>
</linearGradient>
<clipPath id="clip0_76_726">
<rect width="1192" height="411" rx="12" fill="white"/>
</clipPath>
<clipPath id="clip1_76_726">
<rect x="352.72" y="192.44" width="118.272" height="118.272" rx="59.136" fill="white"/>
</clipPath>
<clipPath id="clip2_76_726">
<rect x="907" y="207" width="89.6" height="89.6" rx="44.8" fill="white"/>
</clipPath>
</defs>
</svg>