<svg xmlns="http://www.w3.org/2000/svg" width="130" height="87" viewBox="0 0 130 87" fill="none">
<path opacity="0.1" d="M0.48125 40.04H59.0413V86.12H0.48125V40.04ZM40.3213 0.199996H56.8813V28.04H41.7613C38.8813 28.04 36.7213 28.6 35.2813 29.72C34.0013 30.84 33.3613 33.16 33.3613 36.68V45.56H0.48125V36.92C0.48125 24.6 3.92125 15.4 10.8013 9.31999C17.8413 3.24 27.6813 0.199996 40.3213 0.199996ZM71.0413 40.04H129.601V86.12H71.0413V40.04ZM110.881 0.199996H127.441V28.04H112.321C109.441 28.04 107.281 28.6 105.841 29.72C104.561 30.84 103.921 33.16 103.921 36.68V45.56H71.0413V36.92C71.0413 24.6 74.4813 15.4 81.3613 9.31999C88.4013 3.24 98.2413 0.199996 110.881 0.199996Z" fill="black"/>
</svg>