<svg xmlns="http://www.w3.org/2000/svg" width="130" height="87" viewBox="0 0 130 87" fill="none">
<path opacity="0.1" d="M129.883 46.28H71.3225V0.199996H129.883V46.28ZM90.0425 86.12H73.4825V58.28H88.6025C91.4825 58.28 93.5625 57.72 94.8425 56.6C96.2825 55.48 97.0025 53.16 97.0025 49.64V40.76H129.883V49.4C129.883 61.72 126.363 70.92 119.323 77C112.443 83.08 102.683 86.12 90.0425 86.12ZM59.3225 46.28H0.7625V0.199996H59.3225V46.28ZM19.4825 86.12H2.9225V58.28H18.0425C20.9225 58.28 23.0025 57.72 24.2825 56.6C25.7225 55.48 26.4425 53.16 26.4425 49.64V40.76H59.3225V49.4C59.3225 61.72 55.8025 70.92 48.7625 77C41.8825 83.08 32.1225 86.12 19.4825 86.12Z" fill="black"/>
</svg>